<mxfile host="app.diagrams.net" agent="Mozilla/5.0 (X11; Linux x86_64; rv:134.0) Gecko/20100101 Firefox/134.0" version="26.2.14">
  <diagram name="Page-1" id="y-BpYGQcBngNRp4LTG_6">
    <mxGraphModel dx="575" dy="797" grid="1" gridSize="10" guides="1" tooltips="1" connect="1" arrows="1" fold="1" page="1" pageScale="1" pageWidth="850" pageHeight="1100" math="0" shadow="0">
      <root>
        <mxCell id="0" />
        <mxCell id="1" parent="0" />
        <mxCell id="OBib7svYlHq_IOfsOFX9-1" value="" style="rounded=0;whiteSpace=wrap;html=1;strokeColor=none;fillColor=light-dark(#f66151, #ededed);" vertex="1" parent="1">
          <mxGeometry x="1076" y="100" width="254" height="560" as="geometry" />
        </mxCell>
        <mxCell id="OBib7svYlHq_IOfsOFX9-2" value="" style="rounded=0;whiteSpace=wrap;html=1;fillColor=none;dashed=1;" vertex="1" parent="1">
          <mxGeometry x="1158.5" y="595" width="161.5" height="60" as="geometry" />
        </mxCell>
        <mxCell id="OBib7svYlHq_IOfsOFX9-3" value="" style="rounded=0;whiteSpace=wrap;html=1;fillColor=none;dashed=1;" vertex="1" parent="1">
          <mxGeometry x="1159.5" y="218" width="160.5" height="317" as="geometry" />
        </mxCell>
        <mxCell id="OBib7svYlHq_IOfsOFX9-4" style="edgeStyle=orthogonalEdgeStyle;rounded=0;orthogonalLoop=1;jettySize=auto;html=1;exitX=0.5;exitY=1;exitDx=0;exitDy=0;entryX=0.5;entryY=0;entryDx=0;entryDy=0;" edge="1" parent="1" source="OBib7svYlHq_IOfsOFX9-5" target="OBib7svYlHq_IOfsOFX9-7">
          <mxGeometry relative="1" as="geometry" />
        </mxCell>
        <mxCell id="OBib7svYlHq_IOfsOFX9-5" value="Load Linux kernel" style="rounded=1;whiteSpace=wrap;html=1;fontSize=12;glass=0;strokeWidth=1;shadow=0;" vertex="1" parent="1">
          <mxGeometry x="1168.5" y="110" width="120" height="40" as="geometry" />
        </mxCell>
        <mxCell id="OBib7svYlHq_IOfsOFX9-6" style="edgeStyle=orthogonalEdgeStyle;rounded=0;orthogonalLoop=1;jettySize=auto;html=1;exitX=0.5;exitY=1;exitDx=0;exitDy=0;entryX=0.5;entryY=0;entryDx=0;entryDy=0;" edge="1" parent="1" source="OBib7svYlHq_IOfsOFX9-7" target="OBib7svYlHq_IOfsOFX9-9">
          <mxGeometry relative="1" as="geometry" />
        </mxCell>
        <mxCell id="OBib7svYlHq_IOfsOFX9-7" value="Load RAM disk" style="rounded=1;whiteSpace=wrap;html=1;fontSize=12;glass=0;strokeWidth=1;shadow=0;" vertex="1" parent="1">
          <mxGeometry x="1168.5" y="170" width="120" height="40" as="geometry" />
        </mxCell>
        <mxCell id="OBib7svYlHq_IOfsOFX9-8" style="edgeStyle=orthogonalEdgeStyle;rounded=0;orthogonalLoop=1;jettySize=auto;html=1;exitX=0.5;exitY=1;exitDx=0;exitDy=0;entryX=0.5;entryY=0;entryDx=0;entryDy=0;" edge="1" parent="1" source="OBib7svYlHq_IOfsOFX9-9" target="OBib7svYlHq_IOfsOFX9-12">
          <mxGeometry relative="1" as="geometry" />
        </mxCell>
        <mxCell id="OBib7svYlHq_IOfsOFX9-9" value="Start dracut pre-udev&lt;br&gt;hook" style="rounded=1;whiteSpace=wrap;html=1;fontSize=12;glass=0;strokeWidth=1;shadow=0;" vertex="1" parent="1">
          <mxGeometry x="1167.5" y="230" width="120" height="40" as="geometry" />
        </mxCell>
        <mxCell id="OBib7svYlHq_IOfsOFX9-10" style="edgeStyle=orthogonalEdgeStyle;rounded=0;orthogonalLoop=1;jettySize=auto;html=1;exitX=0.5;exitY=1;exitDx=0;exitDy=0;entryX=0.5;entryY=0;entryDx=0;entryDy=0;" edge="1" parent="1" source="OBib7svYlHq_IOfsOFX9-12" target="OBib7svYlHq_IOfsOFX9-17">
          <mxGeometry relative="1" as="geometry" />
        </mxCell>
        <mxCell id="OBib7svYlHq_IOfsOFX9-11" style="edgeStyle=orthogonalEdgeStyle;rounded=0;orthogonalLoop=1;jettySize=auto;html=1;entryX=1;entryY=0.5;entryDx=0;entryDy=0;" edge="1" parent="1" source="OBib7svYlHq_IOfsOFX9-12" target="OBib7svYlHq_IOfsOFX9-23">
          <mxGeometry relative="1" as="geometry">
            <Array as="points">
              <mxPoint x="1310" y="330" />
              <mxPoint x="1310" y="570" />
            </Array>
          </mxGeometry>
        </mxCell>
        <mxCell id="OBib7svYlHq_IOfsOFX9-12" value="" style="rhombus;whiteSpace=wrap;html=1;" vertex="1" parent="1">
          <mxGeometry x="1188.5" y="290" width="80" height="80" as="geometry" />
        </mxCell>
        <mxCell id="OBib7svYlHq_IOfsOFX9-13" value="&lt;div&gt;wiperamexit&lt;/div&gt;&lt;div&gt;== no&lt;br&gt;&lt;/div&gt;" style="text;html=1;align=center;verticalAlign=middle;resizable=0;points=[];autosize=1;strokeColor=none;fillColor=none;" vertex="1" parent="1">
          <mxGeometry x="1182.5" y="314" width="90" height="40" as="geometry" />
        </mxCell>
        <mxCell id="OBib7svYlHq_IOfsOFX9-14" style="edgeStyle=orthogonalEdgeStyle;rounded=0;orthogonalLoop=1;jettySize=auto;html=1;exitX=0.5;exitY=1;exitDx=0;exitDy=0;entryX=0.5;entryY=0;entryDx=0;entryDy=0;" edge="1" parent="1" source="OBib7svYlHq_IOfsOFX9-17" target="OBib7svYlHq_IOfsOFX9-21">
          <mxGeometry relative="1" as="geometry" />
        </mxCell>
        <mxCell id="OBib7svYlHq_IOfsOFX9-15" style="edgeStyle=orthogonalEdgeStyle;rounded=0;orthogonalLoop=1;jettySize=auto;html=1;entryX=1;entryY=0.5;entryDx=0;entryDy=0;" edge="1" parent="1" source="OBib7svYlHq_IOfsOFX9-17" target="OBib7svYlHq_IOfsOFX9-23">
          <mxGeometry relative="1" as="geometry">
            <mxPoint x="1476" y="500" as="targetPoint" />
            <Array as="points">
              <mxPoint x="1310" y="430" />
              <mxPoint x="1310" y="570" />
            </Array>
          </mxGeometry>
        </mxCell>
        <mxCell id="OBib7svYlHq_IOfsOFX9-16" style="edgeStyle=orthogonalEdgeStyle;rounded=0;orthogonalLoop=1;jettySize=auto;html=1;exitX=0;exitY=0.5;exitDx=0;exitDy=0;entryX=1;entryY=0.5;entryDx=0;entryDy=0;startArrow=classic;startFill=1;endArrow=none;dashed=1;" edge="1" parent="1" source="OBib7svYlHq_IOfsOFX9-17" target="OBib7svYlHq_IOfsOFX9-40">
          <mxGeometry relative="1" as="geometry" />
        </mxCell>
        <mxCell id="OBib7svYlHq_IOfsOFX9-17" value="" style="rhombus;whiteSpace=wrap;html=1;" vertex="1" parent="1">
          <mxGeometry x="1189.5" y="390" width="80" height="80" as="geometry" />
        </mxCell>
        <mxCell id="OBib7svYlHq_IOfsOFX9-18" value="&lt;div&gt;wiperamexit&lt;/div&gt;&lt;div&gt;== yes&lt;/div&gt;" style="text;html=1;align=center;verticalAlign=middle;resizable=0;points=[];autosize=1;strokeColor=none;fillColor=none;" vertex="1" parent="1">
          <mxGeometry x="1183.5" y="414" width="90" height="40" as="geometry" />
        </mxCell>
        <mxCell id="OBib7svYlHq_IOfsOFX9-19" value="no" style="text;html=1;align=center;verticalAlign=middle;resizable=0;points=[];autosize=1;strokeColor=none;fillColor=none;" vertex="1" parent="1">
          <mxGeometry x="1192" y="360" width="40" height="30" as="geometry" />
        </mxCell>
        <mxCell id="OBib7svYlHq_IOfsOFX9-20" style="edgeStyle=orthogonalEdgeStyle;rounded=0;orthogonalLoop=1;jettySize=auto;html=1;exitX=0.5;exitY=1;exitDx=0;exitDy=0;entryX=0.5;entryY=0;entryDx=0;entryDy=0;" edge="1" parent="1" source="OBib7svYlHq_IOfsOFX9-21" target="OBib7svYlHq_IOfsOFX9-23">
          <mxGeometry relative="1" as="geometry" />
        </mxCell>
        <mxCell id="OBib7svYlHq_IOfsOFX9-21" value="Second WAP wipe pass" style="rounded=1;whiteSpace=wrap;html=1;fontSize=12;glass=0;strokeWidth=1;shadow=0;" vertex="1" parent="1">
          <mxGeometry x="1169.5" y="490" width="120" height="40" as="geometry" />
        </mxCell>
        <mxCell id="OBib7svYlHq_IOfsOFX9-22" value="" style="edgeStyle=orthogonalEdgeStyle;rounded=0;orthogonalLoop=1;jettySize=auto;html=1;" edge="1" parent="1" source="OBib7svYlHq_IOfsOFX9-23" target="OBib7svYlHq_IOfsOFX9-26">
          <mxGeometry relative="1" as="geometry" />
        </mxCell>
        <mxCell id="OBib7svYlHq_IOfsOFX9-23" value="Start dracut pre-trigger hook" style="rounded=1;whiteSpace=wrap;html=1;fontSize=12;glass=0;strokeWidth=1;shadow=0;" vertex="1" parent="1">
          <mxGeometry x="1169.5" y="550" width="120" height="40" as="geometry" />
        </mxCell>
        <mxCell id="OBib7svYlHq_IOfsOFX9-24" value="Power down" style="ellipse;whiteSpace=wrap;html=1;" vertex="1" parent="1">
          <mxGeometry x="1194.5" y="670" width="70" height="40" as="geometry" />
        </mxCell>
        <mxCell id="OBib7svYlHq_IOfsOFX9-25" style="edgeStyle=orthogonalEdgeStyle;rounded=0;orthogonalLoop=1;jettySize=auto;html=1;exitX=0.5;exitY=1;exitDx=0;exitDy=0;entryX=0.5;entryY=0;entryDx=0;entryDy=0;" edge="1" parent="1" source="OBib7svYlHq_IOfsOFX9-26" target="OBib7svYlHq_IOfsOFX9-24">
          <mxGeometry relative="1" as="geometry" />
        </mxCell>
        <mxCell id="OBib7svYlHq_IOfsOFX9-26" value="Reboot/power off/halt" style="rounded=1;whiteSpace=wrap;html=1;fontSize=12;glass=0;strokeWidth=1;shadow=0;" vertex="1" parent="1">
          <mxGeometry x="1169.5" y="610" width="120" height="40" as="geometry" />
        </mxCell>
        <mxCell id="OBib7svYlHq_IOfsOFX9-27" value="yes" style="text;html=1;align=center;verticalAlign=middle;resizable=0;points=[];autosize=1;strokeColor=none;fillColor=none;" vertex="1" parent="1">
          <mxGeometry x="1191" y="460" width="40" height="30" as="geometry" />
        </mxCell>
        <mxCell id="OBib7svYlHq_IOfsOFX9-28" style="edgeStyle=orthogonalEdgeStyle;rounded=0;orthogonalLoop=1;jettySize=auto;html=1;exitX=0.5;exitY=1;exitDx=0;exitDy=0;entryX=0.5;entryY=0;entryDx=0;entryDy=0;" edge="1" parent="1" source="OBib7svYlHq_IOfsOFX9-29" target="OBib7svYlHq_IOfsOFX9-5">
          <mxGeometry relative="1" as="geometry" />
        </mxCell>
        <mxCell id="OBib7svYlHq_IOfsOFX9-29" value="C3" style="ellipse;whiteSpace=wrap;html=1;aspect=fixed;" vertex="1" parent="1">
          <mxGeometry x="1213.5" y="60" width="30" height="30" as="geometry" />
        </mxCell>
        <mxCell id="OBib7svYlHq_IOfsOFX9-30" value="Second kernel" style="text;html=1;align=center;verticalAlign=middle;resizable=0;points=[];autosize=1;strokeColor=none;fillColor=none;" vertex="1" parent="1">
          <mxGeometry x="1076" y="100" width="100" height="30" as="geometry" />
        </mxCell>
        <mxCell id="OBib7svYlHq_IOfsOFX9-31" style="edgeStyle=orthogonalEdgeStyle;rounded=0;orthogonalLoop=1;jettySize=auto;html=1;exitX=0;exitY=0.5;exitDx=0;exitDy=0;exitPerimeter=0;entryX=0;entryY=0.5;entryDx=0;entryDy=0;dashed=1;endArrow=none;startFill=0;" edge="1" parent="1" source="OBib7svYlHq_IOfsOFX9-32" target="OBib7svYlHq_IOfsOFX9-3">
          <mxGeometry relative="1" as="geometry" />
        </mxCell>
        <mxCell id="OBib7svYlHq_IOfsOFX9-32" value="" style="strokeWidth=2;html=1;shape=mxgraph.flowchart.annotation_2;align=left;labelPosition=right;pointerEvents=1;rotation=-180;" vertex="1" parent="1">
          <mxGeometry x="1066.5" y="450" width="45" height="70" as="geometry" />
        </mxCell>
        <mxCell id="OBib7svYlHq_IOfsOFX9-33" value="Handled by&lt;br&gt;wipe-ram-exit.sh" style="text;html=1;align=center;verticalAlign=middle;resizable=0;points=[];autosize=1;strokeColor=none;fillColor=none;" vertex="1" parent="1">
          <mxGeometry x="972.5" y="462.5" width="110" height="40" as="geometry" />
        </mxCell>
        <mxCell id="OBib7svYlHq_IOfsOFX9-34" style="edgeStyle=orthogonalEdgeStyle;rounded=0;orthogonalLoop=1;jettySize=auto;html=1;entryX=0;entryY=0.5;entryDx=0;entryDy=0;dashed=1;endArrow=none;startFill=0;" edge="1" parent="1" source="OBib7svYlHq_IOfsOFX9-35" target="OBib7svYlHq_IOfsOFX9-2">
          <mxGeometry relative="1" as="geometry" />
        </mxCell>
        <mxCell id="OBib7svYlHq_IOfsOFX9-35" value="" style="strokeWidth=2;html=1;shape=mxgraph.flowchart.annotation_2;align=left;labelPosition=right;pointerEvents=1;rotation=-180;" vertex="1" parent="1">
          <mxGeometry x="1091" y="590" width="45" height="70" as="geometry" />
        </mxCell>
        <mxCell id="OBib7svYlHq_IOfsOFX9-36" value="Handled by&lt;br&gt;wipe-ram-exit-needshutdown.sh" style="text;html=1;align=center;verticalAlign=middle;resizable=0;points=[];autosize=1;strokeColor=none;fillColor=none;" vertex="1" parent="1">
          <mxGeometry x="920" y="605" width="190" height="40" as="geometry" />
        </mxCell>
        <mxCell id="OBib7svYlHq_IOfsOFX9-37" value="yes" style="text;html=1;align=center;verticalAlign=middle;resizable=0;points=[];autosize=1;strokeColor=none;fillColor=none;" vertex="1" parent="1">
          <mxGeometry x="1260" y="299" width="40" height="30" as="geometry" />
        </mxCell>
        <mxCell id="OBib7svYlHq_IOfsOFX9-38" value="no" style="text;html=1;align=center;verticalAlign=middle;resizable=0;points=[];autosize=1;strokeColor=none;fillColor=none;" vertex="1" parent="1">
          <mxGeometry x="1260" y="398" width="40" height="30" as="geometry" />
        </mxCell>
        <mxCell id="OBib7svYlHq_IOfsOFX9-39" style="edgeStyle=orthogonalEdgeStyle;rounded=0;orthogonalLoop=1;jettySize=auto;html=1;exitX=1;exitY=0.5;exitDx=0;exitDy=0;entryX=0;entryY=0.5;entryDx=0;entryDy=0;dashed=1;" edge="1" parent="1" source="OBib7svYlHq_IOfsOFX9-40" target="OBib7svYlHq_IOfsOFX9-12">
          <mxGeometry relative="1" as="geometry" />
        </mxCell>
        <mxCell id="OBib7svYlHq_IOfsOFX9-40" value="C5" style="ellipse;whiteSpace=wrap;html=1;aspect=fixed;" vertex="1" parent="1">
          <mxGeometry x="1032" y="358" width="30" height="30" as="geometry" />
        </mxCell>
      </root>
    </mxGraphModel>
  </diagram>
</mxfile>
